<svg xmlns="http://www.w3.org/2000/svg" viewBox="0 0 128 128" role="img" aria-label="Icône SilentWeb monochrome">
  <style>
    .bg { fill: #ffffff; stroke: #111111; stroke-width: 4; }
    .ear, .slash { fill: #111111; }
    .slash { stroke: #111111; stroke-width: 10; stroke-linecap: round; }
  </style>
  <circle class="bg" cx="64" cy="64" r="56" />
  <path
    class="ear"
    d="M76 26c-19.33 0-34 14.61-34 33 0 11.32 5.77 21.82 15.1 28.01 4.52 3.05 6.9 7.35 6.9 12.27V108c0 7.18 5.82 13 13 13s13-5.82 13-13v-6c0-3.31-2.69-6-6-6s-6 2.69-6 6v6c0 1.65-1.35 3-3 3s-3-1.35-3-3v-9.72c0-11.78-6.25-22.71-16.5-28.91C45.24 65.26 41 58.08 41 51c0-15.4 11.6-27 27-27s27 11.6 27 27v4c0 3.31 2.69 6 6 6s6-2.69 6-6v-4c0-21.27-17.73-38-38-38z"
  />
  <path class="slash" d="M26 104 102 24" />
</svg>
